<?xml version="1.0" encoding="UTF-8"?>
<svg version="1.1" xmlns="http://www.w3.org/2000/svg" width="447" height="447">
<path d="M0 0 C147.51 0 295.02 0 447 0 C447 147.51 447 295.02 447 447 C299.49 447 151.98 447 0 447 C0 299.49 0 151.98 0 0 Z " fill="#FEFEFE" transform="translate(0,0)"/>
<path d="M0 0 C8.24325586 5.7922286 14.59833072 14.32778152 17.25 24.1015625 C19.41994735 39.39969132 17.31464039 51.53391805 8.078125 63.95703125 C3.9306522 69.08376847 -0.41604831 72.07840991 -6.359375 74.85546875 C-7.34357422 75.335 -7.34357422 75.335 -8.34765625 75.82421875 C-11.65059411 77.35191592 -13.6452176 77.85546875 -17.359375 77.85546875 C-17.359375 88.41546875 -17.359375 98.97546875 -17.359375 109.85546875 C-13.22776855 109.82404785 -13.22776855 109.82404785 -9.01269531 109.79199219 C0.12346048 109.72548963 9.25962742 109.68144078 18.39596176 109.64822006 C23.93126051 109.62741227 29.46630969 109.59921968 35.00146484 109.55371094 C40.35072508 109.51000957 45.69974637 109.48628053 51.04917145 109.47595978 C53.08236701 109.46861182 55.11555062 109.45426378 57.14864349 109.43254852 C71.9925679 109.28041583 84.37153515 109.54751269 95.57421875 120.48046875 C102.0121797 127.87986433 102.79737954 135.4024958 102.73828125 144.875 C102.73615883 146.16285652 102.73615883 146.16285652 102.73399353 147.47673035 C102.72841557 150.20717924 102.71586714 152.93754482 102.703125 155.66796875 C102.69810715 157.52408735 102.69354474 159.38020725 102.68945312 161.23632812 C102.67845336 165.77607355 102.66120393 170.31575705 102.640625 174.85546875 C103.24318115 174.84169189 103.8457373 174.82791504 104.46655273 174.8137207 C105.26520752 174.80300537 106.0638623 174.79229004 106.88671875 174.78125 C107.6748999 174.76747314 108.46308105 174.75369629 109.27514648 174.73950195 C117.95635884 175.1650955 127.90786335 181.61140673 133.640625 187.85546875 C139.20410649 195.66830041 141.93764858 202.95555589 141.94702148 212.61987305 C141.955345 213.36239822 141.96366852 214.1049234 141.97224426 214.86994934 C141.99619052 217.30658331 142.00509853 219.74294861 142.01171875 222.1796875 C142.02069865 223.8897153 142.02982072 225.59974236 142.03907776 227.30976868 C142.05552995 230.88971863 142.06326064 234.46957551 142.06616211 238.04956055 C142.07153378 242.60767639 142.10917932 247.16490097 142.15490627 251.72276592 C142.18484548 255.25498033 142.19188934 258.78698477 142.19288826 262.31931496 C142.19705926 263.99804568 142.20936617 265.67677887 142.23040581 267.35538292 C142.39505484 281.63038997 140.13062958 292.16589791 129.83984375 302.796875 C127.25370306 305.21764968 124.75720996 307.16167258 121.640625 308.85546875 C120.09375 309.72171875 120.09375 309.72171875 118.515625 310.60546875 C115.12240562 312.02588617 112.05200888 311.98316731 108.3984375 311.93359375 C107.31965332 311.92231445 106.24086914 311.91103516 105.12939453 311.89941406 C104.30810059 311.88491211 103.48680664 311.87041016 102.640625 311.85546875 C102.66157227 312.64606689 102.68251953 313.43666504 102.70410156 314.2512207 C102.78808778 317.89000339 102.83954588 321.52858118 102.890625 325.16796875 C102.92414063 326.41126953 102.95765625 327.65457031 102.9921875 328.93554688 C103.09916143 339.12481357 101.49293799 348.89196987 94.640625 356.85546875 C85.66080651 363.74386926 78.57990865 366.00535561 67.23503113 366.00263977 C66.40320999 366.00631646 65.57138885 366.00999315 64.71436101 366.01378125 C61.93481181 366.02476988 59.15530005 366.02865367 56.37573242 366.0324707 C54.37962222 366.03873885 52.38351318 366.04538596 50.3874054 366.05238342 C43.84030971 366.0733792 37.29321391 366.08377956 30.74609375 366.09375 C28.48962199 366.09779881 26.23315036 366.10191577 23.97667885 366.10610008 C13.37752005 366.12513952 2.77836818 366.13937487 -7.82080442 366.14771205 C-20.04773548 366.15748923 -32.27448574 366.18382663 -44.50135309 366.22421294 C-53.95886285 366.25437834 -63.41632077 366.26918122 -72.8738777 366.27249306 C-78.51974278 366.27484243 -84.16541441 366.28378897 -89.8112278 366.30895424 C-95.12267003 366.33224818 -100.43379159 366.33646275 -105.74527168 366.32619286 C-107.69108904 366.32569776 -109.63692227 366.33201034 -111.58269119 366.3457489 C-130.26862425 366.470272 -130.26862425 366.470272 -137.359375 361.85546875 C-138.00540082 361.48756383 -138.65142664 361.11965891 -139.317029 360.74060535 C-145.93326934 356.87707846 -150.05986058 349.37092454 -151.99975586 342.10839844 C-152.85189499 336.76994639 -152.55784833 331.30695461 -152.484375 325.91796875 C-152.47535156 324.66177734 -152.46632812 323.40558594 -152.45703125 322.11132812 C-152.43356749 319.02584353 -152.40073701 315.9407567 -152.359375 312.85546875 C-152.94017822 312.87794678 -153.52098145 312.9004248 -154.11938477 312.92358398 C-163.84971675 313.14119524 -171.28835073 309.98309309 -178.734375 303.66796875 C-185.10186051 297.53593689 -190.94194486 289.35989704 -191.62680054 280.32907104 C-191.6446591 278.95629166 -191.65167127 277.58334362 -191.64990234 276.21044922 C-191.65661957 275.45685623 -191.66333679 274.70326324 -191.67025757 273.92683411 C-191.68921111 271.44204048 -191.69316113 268.95751762 -191.6953125 266.47265625 C-191.70174486 264.73495373 -191.70847354 262.99725228 -191.71548462 261.259552 C-191.72745264 257.61636855 -191.73116619 253.97327985 -191.72998047 250.33007812 C-191.7297779 245.68673676 -191.75701732 241.04401173 -191.79152489 236.40081596 C-191.81389195 232.80945103 -191.81781494 229.21823177 -191.81676102 225.62680435 C-191.81910466 223.91656507 -191.82785761 222.206321 -191.84342575 220.49615097 C-191.95865116 206.52458136 -190.45656079 195.40599758 -180.359375 184.85546875 C-173.79113651 178.85022213 -166.61806072 174.57735485 -157.56640625 174.75390625 C-156.58776611 174.76856934 -155.60912598 174.78323242 -154.60083008 174.79833984 C-153.8611499 174.81719238 -153.12146973 174.83604492 -152.359375 174.85546875 C-152.37508545 173.72117432 -152.3907959 172.58687988 -152.40698242 171.41821289 C-152.461642 167.17463394 -152.49585507 162.93108557 -152.52416992 158.68725586 C-152.53917497 156.85712434 -152.55958559 155.02702829 -152.58569336 153.19702148 C-152.62244406 150.55313317 -152.63918437 147.90972383 -152.65234375 145.265625 C-152.66782761 144.45899918 -152.68331146 143.65237335 -152.69926453 142.82130432 C-152.70199724 133.41293942 -149.78019945 125.74114927 -143.359375 118.85546875 C-135.57536239 111.5969591 -127.17467148 109.38155672 -116.70874023 109.51489258 C-115.79059036 109.5144545 -114.87244049 109.51401642 -113.9264679 109.51356506 C-110.92341051 109.51563755 -107.92092733 109.53889532 -104.91796875 109.5625 C-102.82333176 109.56810144 -100.72869081 109.57236895 -98.63404846 109.57536316 C-93.14477518 109.58676875 -87.6557434 109.61619887 -82.16656494 109.6494751 C-76.55573797 109.68026864 -70.94487165 109.69388828 -65.33398438 109.70898438 C-54.34232523 109.74107288 -43.35090806 109.79380561 -32.359375 109.85546875 C-32.359375 99.29546875 -32.359375 88.73546875 -32.359375 77.85546875 C-34.999375 77.52546875 -37.639375 77.19546875 -40.359375 76.85546875 C-52.00858051 72.03967835 -60.12795343 63.43189252 -65.484375 52.1796875 C-68.99016852 42.86742346 -69.13311498 28.84412585 -65.26171875 19.65625 C-64.96394531 19.06199219 -64.66617188 18.46773437 -64.359375 17.85546875 C-63.5240625 16.12296875 -63.5240625 16.12296875 -62.671875 14.35546875 C-56.41427671 4.17801644 -47.42598517 -3.25417699 -35.8984375 -6.67578125 C-23.14314879 -9.03060378 -11.1093961 -6.42757917 0 0 Z " fill="#AFAFAF" transform="translate(248.359375,44.14453125)"/>
<path d="M0 0 C8.24325586 5.7922286 14.59833072 14.32778152 17.25 24.1015625 C19.41994735 39.39969132 17.31464039 51.53391805 8.078125 63.95703125 C3.9306522 69.08376847 -0.41604831 72.07840991 -6.359375 74.85546875 C-7.34357422 75.335 -7.34357422 75.335 -8.34765625 75.82421875 C-11.65059411 77.35191592 -13.6452176 77.85546875 -17.359375 77.85546875 C-17.359375 88.41546875 -17.359375 98.97546875 -17.359375 109.85546875 C-13.22776855 109.82404785 -13.22776855 109.82404785 -9.01269531 109.79199219 C0.12346048 109.72548963 9.25962742 109.68144078 18.39596176 109.64822006 C23.93126051 109.62741227 29.46630969 109.59921968 35.00146484 109.55371094 C40.35072508 109.51000957 45.69974637 109.48628053 51.04917145 109.47595978 C53.08236701 109.46861182 55.11555062 109.45426378 57.14864349 109.43254852 C71.9925679 109.28041583 84.37153515 109.54751269 95.57421875 120.48046875 C102.0121797 127.87986433 102.79737954 135.4024958 102.73828125 144.875 C102.73615883 146.16285652 102.73615883 146.16285652 102.73399353 147.47673035 C102.72841557 150.20717924 102.71586714 152.93754482 102.703125 155.66796875 C102.69810715 157.52408735 102.69354474 159.38020725 102.68945312 161.23632812 C102.67845336 165.77607355 102.66120393 170.31575705 102.640625 174.85546875 C103.24318115 174.84169189 103.8457373 174.82791504 104.46655273 174.8137207 C105.26520752 174.80300537 106.0638623 174.79229004 106.88671875 174.78125 C107.6748999 174.76747314 108.46308105 174.75369629 109.27514648 174.73950195 C117.95635884 175.1650955 127.90786335 181.61140673 133.640625 187.85546875 C139.20410649 195.66830041 141.93764858 202.95555589 141.94702148 212.61987305 C141.955345 213.36239822 141.96366852 214.1049234 141.97224426 214.86994934 C141.99619052 217.30658331 142.00509853 219.74294861 142.01171875 222.1796875 C142.02069865 223.8897153 142.02982072 225.59974236 142.03907776 227.30976868 C142.05552995 230.88971863 142.06326064 234.46957551 142.06616211 238.04956055 C142.07153378 242.60767639 142.10917932 247.16490097 142.15490627 251.72276592 C142.18484548 255.25498033 142.19188934 258.78698477 142.19288826 262.31931496 C142.19705926 263.99804568 142.20936617 265.67677887 142.23040581 267.35538292 C142.39505484 281.63038997 140.13062958 292.16589791 129.83984375 302.796875 C127.25370306 305.21764968 124.75720996 307.16167258 121.640625 308.85546875 C120.09375 309.72171875 120.09375 309.72171875 118.515625 310.60546875 C115.12240562 312.02588617 112.05200888 311.98316731 108.3984375 311.93359375 C107.31965332 311.92231445 106.24086914 311.91103516 105.12939453 311.89941406 C104.30810059 311.88491211 103.48680664 311.87041016 102.640625 311.85546875 C102.66157227 312.64606689 102.68251953 313.43666504 102.70410156 314.2512207 C102.78808778 317.89000339 102.83954588 321.52858118 102.890625 325.16796875 C102.92414063 326.41126953 102.95765625 327.65457031 102.9921875 328.93554688 C103.09916143 339.12481357 101.49293799 348.89196987 94.640625 356.85546875 C85.66080651 363.74386926 78.57990865 366.00535561 67.23503113 366.00263977 C66.40320999 366.00631646 65.57138885 366.00999315 64.71436101 366.01378125 C61.93481181 366.02476988 59.15530005 366.02865367 56.37573242 366.0324707 C54.37962222 366.03873885 52.38351318 366.04538596 50.3874054 366.05238342 C43.84030971 366.0733792 37.29321391 366.08377956 30.74609375 366.09375 C28.48962199 366.09779881 26.23315036 366.10191577 23.97667885 366.10610008 C13.37752005 366.12513952 2.77836818 366.13937487 -7.82080442 366.14771205 C-20.04773548 366.15748923 -32.27448574 366.18382663 -44.50135309 366.22421294 C-53.95886285 366.25437834 -63.41632077 366.26918122 -72.8738777 366.27249306 C-78.51974278 366.27484243 -84.16541441 366.28378897 -89.8112278 366.30895424 C-95.12267003 366.33224818 -100.43379159 366.33646275 -105.74527168 366.32619286 C-107.69108904 366.32569776 -109.63692227 366.33201034 -111.58269119 366.3457489 C-130.26862425 366.470272 -130.26862425 366.470272 -137.359375 361.85546875 C-138.00540082 361.48756383 -138.65142664 361.11965891 -139.317029 360.74060535 C-145.93326934 356.87707846 -150.05986058 349.37092454 -151.99975586 342.10839844 C-152.85189499 336.76994639 -152.55784833 331.30695461 -152.484375 325.91796875 C-152.47535156 324.66177734 -152.46632812 323.40558594 -152.45703125 322.11132812 C-152.43356749 319.02584353 -152.40073701 315.9407567 -152.359375 312.85546875 C-152.94017822 312.87794678 -153.52098145 312.9004248 -154.11938477 312.92358398 C-163.84971675 313.14119524 -171.28835073 309.98309309 -178.734375 303.66796875 C-185.10186051 297.53593689 -190.94194486 289.35989704 -191.62680054 280.32907104 C-191.6446591 278.95629166 -191.65167127 277.58334362 -191.64990234 276.21044922 C-191.65661957 275.45685623 -191.66333679 274.70326324 -191.67025757 273.92683411 C-191.68921111 271.44204048 -191.69316113 268.95751762 -191.6953125 266.47265625 C-191.70174486 264.73495373 -191.70847354 262.99725228 -191.71548462 261.259552 C-191.72745264 257.61636855 -191.73116619 253.97327985 -191.72998047 250.33007812 C-191.7297779 245.68673676 -191.75701732 241.04401173 -191.79152489 236.40081596 C-191.81389195 232.80945103 -191.81781494 229.21823177 -191.81676102 225.62680435 C-191.81910466 223.91656507 -191.82785761 222.206321 -191.84342575 220.49615097 C-191.95865116 206.52458136 -190.45656079 195.40599758 -180.359375 184.85546875 C-173.79113651 178.85022213 -166.61806072 174.57735485 -157.56640625 174.75390625 C-156.58776611 174.76856934 -155.60912598 174.78323242 -154.60083008 174.79833984 C-153.8611499 174.81719238 -153.12146973 174.83604492 -152.359375 174.85546875 C-152.37508545 173.72117432 -152.3907959 172.58687988 -152.40698242 171.41821289 C-152.461642 167.17463394 -152.49585507 162.93108557 -152.52416992 158.68725586 C-152.53917497 156.85712434 -152.55958559 155.02702829 -152.58569336 153.19702148 C-152.62244406 150.55313317 -152.63918437 147.90972383 -152.65234375 145.265625 C-152.66782761 144.45899918 -152.68331146 143.65237335 -152.69926453 142.82130432 C-152.70199724 133.41293942 -149.78019945 125.74114927 -143.359375 118.85546875 C-135.57536239 111.5969591 -127.17467148 109.38155672 -116.70874023 109.51489258 C-115.79059036 109.5144545 -114.87244049 109.51401642 -113.9264679 109.51356506 C-110.92341051 109.51563755 -107.92092733 109.53889532 -104.91796875 109.5625 C-102.82333176 109.56810144 -100.72869081 109.57236895 -98.63404846 109.57536316 C-93.14477518 109.58676875 -87.6557434 109.61619887 -82.16656494 109.6494751 C-76.55573797 109.68026864 -70.94487165 109.69388828 -65.33398438 109.70898438 C-54.34232523 109.74107288 -43.35090806 109.79380561 -32.359375 109.85546875 C-32.359375 99.29546875 -32.359375 88.73546875 -32.359375 77.85546875 C-34.999375 77.52546875 -37.639375 77.19546875 -40.359375 76.85546875 C-52.00858051 72.03967835 -60.12795343 63.43189252 -65.484375 52.1796875 C-68.99016852 42.86742346 -69.13311498 28.84412585 -65.26171875 19.65625 C-64.96394531 19.06199219 -64.66617188 18.46773437 -64.359375 17.85546875 C-63.5240625 16.12296875 -63.5240625 16.12296875 -62.671875 14.35546875 C-56.41427671 4.17801644 -47.42598517 -3.25417699 -35.8984375 -6.67578125 C-23.14314879 -9.03060378 -11.1093961 -6.42757917 0 0 Z M-133.81619149 131.59974194 C-137.2537846 136.51386441 -138.08023854 140.49863772 -137.98756409 146.40786743 C-137.99465847 147.23126346 -138.00175286 148.05465949 -138.00906223 148.90300691 C-138.02656407 151.64236604 -138.00857815 154.38029152 -137.99047852 157.11962891 C-137.99562025 159.09135074 -138.00290344 161.06306798 -138.01216125 163.03477478 C-138.03064855 168.37561641 -138.01775432 173.71595773 -137.99807096 179.05677843 C-137.98166582 184.65003049 -137.99049974 190.24325133 -137.99559021 195.83651733 C-138.00010832 205.22637918 -137.98425689 214.61604162 -137.95629883 224.00585938 C-137.92422966 234.86007356 -137.92427088 245.71392853 -137.9415136 256.56816828 C-137.95737764 267.01520135 -137.95064708 277.46210279 -137.93357658 287.9091301 C-137.92670607 292.35319907 -137.92773852 296.79716252 -137.93512154 301.24123001 C-137.94278336 306.4731394 -137.93066135 311.7046399 -137.90327263 316.93647957 C-137.89638739 318.85612207 -137.89629231 320.77580275 -137.90348816 322.69544411 C-137.91218089 325.31643118 -137.8962305 327.9361558 -137.8740387 330.55703735 C-137.88227946 331.31618395 -137.89052023 332.07533056 -137.89901072 332.8574816 C-137.80638591 338.78650177 -135.85081933 342.34614324 -131.7265625 346.5 C-126.65677094 350.46823999 -123.84154892 351.00414708 -117.52850342 351.00263977 C-116.3010992 351.0081548 -116.3010992 351.0081548 -115.04889894 351.01378125 C-112.2913821 351.02484439 -109.53390292 351.02866637 -106.77636719 351.0324707 C-104.80553568 351.03873337 -102.83470536 351.04537999 -100.86387634 351.05238342 C-95.49806467 351.06981146 -90.13226192 351.08035009 -84.76642895 351.08858895 C-81.41584047 351.09373527 -78.06525478 351.09981117 -74.71466827 351.10610008 C-64.23670547 351.12515716 -53.75874974 351.13938722 -43.28077292 351.14771205 C-31.17602193 351.15748747 -19.07145366 351.18381287 -6.96676707 351.22421294 C2.38276046 351.25434924 11.73223554 351.26917856 21.08181071 351.27249306 C26.6689544 351.27484639 32.255903 351.28384352 37.84299469 351.30895424 C43.09938365 351.3321964 48.35544855 351.33648366 53.61187553 351.32619286 C55.54121159 351.32569645 57.47056338 351.33204773 59.39985085 351.3457489 C62.03423012 351.3634106 64.66743923 351.35639013 67.30181885 351.34321594 C68.44667783 351.35966981 68.44667783 351.35966981 69.61466527 351.37645608 C76.42797774 351.2942134 79.70603941 348.71100759 84.47552204 344.13640499 C87.12082153 340.12779241 87.3447197 337.00779295 87.28227234 332.36048889 C87.29077786 331.51908952 87.29928338 330.67769014 87.30804664 329.81079382 C87.33028697 326.99851462 87.31688862 324.18756232 87.3034668 321.37524414 C87.31188124 319.35617629 87.32240691 317.33711629 87.33488464 315.31806946 C87.36194865 309.83865142 87.35722758 304.35968842 87.34518409 298.88023305 C87.33805478 294.3050722 87.34655072 289.72999561 87.35508949 285.15484136 C87.37504632 274.36136987 87.36946724 263.56811985 87.34741211 252.7746582 C87.32504819 241.64093102 87.34264659 230.50778364 87.38046139 219.37411124 C87.41169425 209.81298086 87.41961154 200.25202999 87.40850765 190.69085497 C87.4020195 184.98129477 87.40402825 179.27206917 87.42783165 173.56254768 C87.44907578 168.19346169 87.44111564 162.82519397 87.41073799 157.45615959 C87.40440785 155.48694303 87.40827798 153.51766301 87.42314911 151.54849243 C87.44182465 148.85720167 87.42342693 146.16858955 87.39579773 143.47743225 C87.40986418 142.70037951 87.42393063 141.92332677 87.43842334 141.12272698 C87.32999597 135.87213702 85.85586978 133.13396518 82.31720096 129.27891535 C78.00139805 125.61471217 73.96732489 125.56614202 68.49331665 125.58804321 C67.2510985 125.58124654 67.2510985 125.58124654 65.98378503 125.57431257 C63.20479108 125.56163766 60.42599234 125.56329093 57.64697266 125.56494141 C55.65614062 125.5589581 53.6653109 125.55215301 51.67448425 125.54458618 C46.26332142 125.52689921 40.85222182 125.52222967 35.44103289 125.52095461 C30.92554949 125.51905665 26.41008085 125.51170032 21.89460313 125.50461042 C11.24222783 125.48831874 0.58988633 125.48344219 -10.0625 125.48486328 C-21.05520255 125.48606505 -32.04770888 125.46495796 -43.04036176 125.43337595 C-52.47486241 125.40723529 -61.90929888 125.39649505 -71.34383547 125.3977741 C-76.98012157 125.39828437 -82.6162333 125.39256534 -88.25248337 125.371418 C-93.55323519 125.35207283 -98.85364565 125.35188575 -104.15440941 125.36645126 C-106.09986684 125.36854505 -108.04534543 125.36380464 -109.99076653 125.35173035 C-112.64694677 125.3363125 -115.3019449 125.3455628 -117.95809937 125.36099243 C-118.72775634 125.35070531 -119.49741332 125.34041818 -120.29039323 125.32981932 C-126.30791281 125.40705349 -129.93936215 126.95794285 -133.81619149 131.59974194 Z " fill="#353535" transform="translate(248.359375,44.14453125)"/>
<path d="M0 0 C0.75650018 -0.0034177 1.51300037 -0.0068354 2.2924248 -0.01035666 C4.81697329 -0.01692391 7.34044883 0.00502033 9.86489868 0.0269165 C11.67856827 0.02804524 13.49223968 0.02741062 15.3059082 0.02514648 C20.22291197 0.02399942 25.13952497 0.04750768 30.05643797 0.07544231 C35.19737482 0.10045707 40.33832076 0.10279803 45.47930908 0.10754395 C55.21150342 0.11997348 64.94351791 0.15279487 74.67563307 0.1929419 C85.75655171 0.23766023 96.83747896 0.25964682 107.91846538 0.27972364 C130.71014003 0.3215275 153.50156815 0.39487968 176.29312134 0.48101807 C176.29312134 17.31101807 176.29312134 34.14101807 176.29312134 51.48101807 C175.30312134 51.81101807 174.31312134 52.14101807 173.29312134 52.48101807 C172.9644104 51.97312744 172.63569946 51.46523682 172.29702759 50.94195557 C167.03664507 43.32936949 159.51306069 37.42546925 150.29312134 35.48101807 C140.28879157 34.48197265 131.55680834 35.76196042 123.41812134 41.85601807 C120.2892823 44.47807332 117.60995658 47.09487425 115.29312134 50.48101807 C114.75687134 51.24414307 114.22062134 52.00726807 113.66812134 52.79351807 C109.78828348 60.37683752 108.92566312 69.18035527 111.05093384 77.41851807 C114.87504201 88.49939843 120.8188056 95.56522381 131.30093384 100.71929932 C138.84469029 103.60367678 147.92474638 103.68113485 155.48062134 100.91851807 C163.76869497 97.11372022 169.51178775 92.00329257 174.19937134 84.20367432 C174.56030884 83.63519775 174.92124634 83.06672119 175.29312134 82.48101807 C175.62312134 82.48101807 175.95312134 82.48101807 176.29312134 82.48101807 C176.29312134 104.59101807 176.29312134 126.70101807 176.29312134 149.48101807 C173.98312134 147.50101807 171.67312134 145.52101807 169.29312134 143.48101807 C160.84461273 136.90995581 151.67261694 136.03399061 141.2850647 136.09283447 C140.1276326 136.08757751 138.9702005 136.08232056 137.7776947 136.0769043 C133.97931129 136.06377831 130.18135223 136.07241589 126.38296509 136.08258057 C123.72838324 136.08055785 121.07381394 136.07764875 118.41923523 136.07388306 C112.86730409 136.06844371 107.31549316 136.07556978 101.76358032 136.08990479 C95.36508146 136.10623595 88.96686938 136.10093223 82.56837744 136.08442557 C77.05128319 136.07076811 71.53427476 136.06891151 66.01716906 136.07674158 C62.73224051 136.08139378 59.44747461 136.0809149 56.16254997 136.07213211 C52.4987659 136.06448443 48.83552708 136.07616883 45.17178345 136.09283447 C44.09776276 136.08676178 43.02374207 136.08068909 41.91717529 136.07443237 C30.84503289 136.16738864 22.83626277 139.11664893 14.66812134 146.73101807 C7.18310209 154.43131441 5.97446878 162.53668114 6.08218384 172.94195557 C6.55399513 180.85790056 9.48471984 186.28548608 14.08609009 192.63336182 C15.29312134 194.48101807 15.29312134 194.48101807 15.29312134 196.48101807 C4.40312134 196.48101807 -6.48687866 196.48101807 -17.70687866 196.48101807 C-17.79945541 172.33328686 -17.87084732 148.18559836 -17.91412735 124.03772545 C-17.93475673 112.82556494 -17.96288462 101.61351668 -18.00863647 90.40142822 C-18.0484926 80.62951096 -18.07430874 70.85767498 -18.08323264 61.0856787 C-18.08844944 55.91096346 -18.1007188 50.73648079 -18.12979889 45.56184006 C-18.15694854 40.69125095 -18.16532452 35.82099024 -18.15930939 30.95033264 C-18.16040982 29.16289612 -18.16836639 27.37544863 -18.18370056 25.58807755 C-18.2036218 23.14625701 -18.19881064 20.70567403 -18.18789673 18.26382446 C-18.19954809 17.55758513 -18.21119946 16.85134579 -18.2232039 16.12370527 C-18.16265239 11.10682694 -16.93557746 8.28613197 -13.70687866 4.48101807 C-9.25432208 0.7094304 -5.68181236 -0.09478154 0 0 Z " fill="#DFDFDF" transform="translate(129.70687866210938,169.51898193359375)"/>
<path d="M0 0 C12.36137269 -0.06962775 24.72269842 -0.12287619 37.08422756 -0.15543652 C42.82469568 -0.17106684 48.56502923 -0.19225713 54.30541992 -0.22631836 C59.84917072 -0.25900552 65.3927924 -0.27687281 70.93663216 -0.28463173 C73.04764907 -0.29015844 75.15865922 -0.30095068 77.2696209 -0.31719017 C80.23515765 -0.33908866 83.20016639 -0.34196172 86.16577148 -0.34057617 C87.0310849 -0.351362 87.89639832 -0.36214783 88.78793335 -0.3732605 C98.85730111 -0.32262711 105.56655417 2.65526912 112.828125 9.58984375 C119.41665498 16.90121605 120.15677526 24.5437062 120.09765625 34.01953125 C120.09553383 35.30738777 120.09553383 35.30738777 120.09336853 36.6212616 C120.08779057 39.35171049 120.07524214 42.08207607 120.0625 44.8125 C120.05748215 46.6686186 120.05291974 48.5247385 120.04882812 50.38085938 C120.03782836 54.9206048 120.02057893 59.4602883 120 64 C120.90383423 63.97933472 120.90383423 63.97933472 121.82592773 63.95825195 C122.62458252 63.94753662 123.4232373 63.93682129 124.24609375 63.92578125 C125.0342749 63.91200439 125.82245605 63.89822754 126.63452148 63.8840332 C135.31573384 64.30962675 145.26723835 70.75593798 151 77 C156.56348149 84.81283166 159.29702358 92.10008714 159.30639648 101.7644043 C159.31472 102.50692947 159.32304352 103.24945465 159.33161926 104.01448059 C159.35556552 106.45111456 159.36447353 108.88747986 159.37109375 111.32421875 C159.38007365 113.03424655 159.38919572 114.74427361 159.39845276 116.45429993 C159.41490495 120.03424988 159.42263564 123.61410676 159.42553711 127.1940918 C159.43090878 131.75220764 159.46855432 136.30943222 159.51428127 140.86729717 C159.54422048 144.39951158 159.55126434 147.93151602 159.55226326 151.46384621 C159.55643426 153.14257693 159.56874117 154.82131012 159.58978081 156.49991417 C159.75442984 170.77492122 157.49000458 181.31042916 147.19921875 191.94140625 C144.61307806 194.36218093 142.11658496 196.30620383 139 198 C137.96875 198.5775 136.9375 199.155 135.875 199.75 C132.48178062 201.17041742 129.41138388 201.12769856 125.7578125 201.078125 C124.67902832 201.0668457 123.60024414 201.05556641 122.48876953 201.04394531 C121.25682861 201.02219238 121.25682861 201.02219238 120 201 C120.02094727 201.79059814 120.04189453 202.58119629 120.06347656 203.39575195 C120.14746278 207.03453464 120.19892088 210.67311243 120.25 214.3125 C120.30027344 216.17745117 120.30027344 216.17745117 120.3515625 218.08007812 C120.45853643 228.26934482 118.85231299 238.03650112 112 246 C103.02018151 252.88840051 95.93928365 255.14988686 84.59440613 255.14717102 C83.76258499 255.15084771 82.93076385 255.1545244 82.07373601 255.1583125 C79.29418681 255.16930113 76.51467505 255.17318492 73.73510742 255.17700195 C71.73899722 255.1832701 69.74288818 255.18991721 67.7467804 255.19691467 C61.19968471 255.21791045 54.65258891 255.22831081 48.10546875 255.23828125 C45.84899699 255.24233006 43.59252536 255.24644702 41.33605385 255.25063133 C30.73689505 255.26967077 20.13774318 255.28390612 9.53857058 255.2922433 C-2.68836048 255.30202048 -14.91511074 255.32835788 -27.14197809 255.36874419 C-36.59948785 255.39890959 -46.05694577 255.41371247 -55.5145027 255.41702431 C-61.16036778 255.41937368 -66.80603941 255.42832022 -72.4518528 255.45348549 C-77.76329503 255.47677943 -83.07441659 255.480994 -88.38589668 255.47072411 C-90.33171404 255.47022901 -92.27754727 255.47654159 -94.22331619 255.49028015 C-112.90924925 255.61480325 -112.90924925 255.61480325 -120 251 C-120.64602582 250.63209508 -121.29205164 250.26419016 -121.957654 249.8851366 C-128.57389434 246.02160971 -132.70048558 238.51545579 -134.64038086 231.25292969 C-135.49251999 225.91447764 -135.19847333 220.45148586 -135.125 215.0625 C-135.11597656 213.80630859 -135.10695313 212.55011719 -135.09765625 211.25585938 C-135.07419249 208.17037478 -135.04136201 205.08528795 -135 202 C-134.67 202 -134.34 202 -134 202 C-133.67 204.64 -133.34 207.28 -133 210 C-129.04 210.33 -125.08 210.66 -121 211 C-121 149.95 -121 88.9 -121 26 C-120.67 26 -120.34 26 -120 26 C-119.99853344 27.03552317 -119.99706688 28.07104633 -119.99555588 29.13794899 C-119.95897286 54.32595233 -119.89953897 79.51382258 -119.81609726 104.70171547 C-119.77627547 116.88236337 -119.7438989 129.06294636 -119.72900391 141.24365234 C-119.7160037 151.85944657 -119.6890807 162.47509817 -119.64538693 173.09081209 C-119.62273553 178.71259796 -119.60709153 184.33420769 -119.60811615 189.95604324 C-119.60886058 195.24694653 -119.59099692 200.5374599 -119.55883217 205.82826233 C-119.55031004 207.77046811 -119.54859887 209.71271752 -119.55419731 211.65493393 C-119.56082391 214.30700349 -119.54294916 216.95782758 -119.51898193 219.60977173 C-119.52674235 220.37826624 -119.53450277 221.14676074 -119.54249835 221.93854296 C-119.45987663 227.10325136 -118.24337799 230.0133202 -115 234 C-109.88255532 238.50822507 -106.83879488 239.14876348 -100.16912842 239.14717102 C-98.9417242 239.15268605 -98.9417242 239.15268605 -97.68952394 239.1583125 C-94.9320071 239.16937564 -92.17452792 239.17319762 -89.41699219 239.17700195 C-87.44616068 239.18326462 -85.47533036 239.18991124 -83.50450134 239.19691467 C-78.13868967 239.21434271 -72.77288692 239.22488134 -67.40705395 239.2331202 C-64.05646547 239.23826652 -60.70587978 239.24434242 -57.35529327 239.25063133 C-46.87733047 239.26968841 -36.39937474 239.28391847 -25.92139792 239.2922433 C-13.81664693 239.30201872 -1.71207866 239.32834412 10.39260793 239.36874419 C19.74213546 239.39888049 29.09161054 239.41370981 38.44118571 239.41702431 C44.0283294 239.41937764 49.615278 239.42837477 55.20236969 239.45348549 C60.45875865 239.47672765 65.71482355 239.48101491 70.97125053 239.47072411 C72.90058659 239.4702277 74.82993838 239.47657898 76.75922585 239.49028015 C79.39360512 239.50794185 82.02681423 239.50092138 84.66119385 239.48774719 C85.80605283 239.50420106 85.80605283 239.50420106 86.97404027 239.52098733 C93.46150541 239.44267791 96.76834593 237.12051644 101.34283352 232.7738409 C103.5556159 229.06998475 103.55877963 225.80958914 103.5146637 221.61854553 C103.52508199 220.35666976 103.52508199 220.35666976 103.53571075 219.06930155 C103.55400017 216.25174152 103.54371112 213.43502164 103.53344727 210.61743164 C103.54050476 208.59689198 103.54924906 206.57635761 103.55955505 204.55583191 C103.58207787 199.06821037 103.57910247 193.58087686 103.57023358 188.09322667 C103.56512742 183.51306141 103.57241326 178.93295044 103.57970566 174.35279077 C103.59671392 163.5483781 103.59312949 152.74410662 103.57641602 141.93969727 C103.55949259 130.79070083 103.57533037 119.64209586 103.6076389 108.49314219 C103.63432302 98.92272132 103.64161399 89.35242239 103.63312382 79.78196806 C103.62819133 74.06519505 103.63042779 68.34865764 103.65091133 62.63191414 C103.66924984 57.25637024 103.66333179 51.88139004 103.63871193 46.50587654 C103.6336983 44.53301272 103.63720805 42.56010608 103.64986038 40.58727646 C103.66576858 37.89368055 103.65086178 35.20194595 103.62818909 32.50843811 C103.64002482 31.72779041 103.65186054 30.94714271 103.66405493 30.14283901 C103.59727948 26.23780265 103.00576138 24.00944834 100.96073818 20.65572262 C95.16534348 15.45737009 89.21338652 14.55131997 81.63500977 14.60127258 C80.83188166 14.59462576 80.02875355 14.58797893 79.20128822 14.58113068 C76.53119585 14.56259447 73.86155529 14.56509959 71.19140625 14.56762695 C69.26906201 14.55860406 67.34672352 14.54827555 65.4243927 14.53674316 C60.22047166 14.50920908 55.01665991 14.49989349 49.81267548 14.49388909 C44.36872544 14.48449612 38.92485672 14.45829194 33.48095703 14.43388367 C23.17873472 14.39024046 12.87652822 14.36168007 2.57424164 14.33856028 C-9.15732741 14.31149697 -20.88881455 14.26758612 -32.62032509 14.22227156 C-56.74683897 14.12945646 -80.87337853 14.05776132 -105 14 C-105 13.67 -105 13.34 -105 13 C-45.6 13 13.8 13 75 13 C75 9.04 75 5.08 75 1 C50.25 1 25.5 1 0 1 C0 0.67 0 0.34 0 0 Z " fill="#282828" transform="translate(231,155)"/>
<path d="M0 0 C0.99922989 -0.0071553 1.99845978 -0.01431061 3.02796936 -0.02168274 C4.11322906 -0.02437164 5.19848877 -0.02706055 6.31663513 -0.02983093 C8.04445976 -0.03968773 8.04445976 -0.03968773 9.80718994 -0.04974365 C13.61820036 -0.06944846 17.42917139 -0.08113415 21.24021912 -0.09111023 C23.19673558 -0.09722352 23.19673558 -0.09722352 25.19277763 -0.10346031 C31.38750654 -0.12249836 37.58222366 -0.13672971 43.77697617 -0.14507228 C50.89988054 -0.15482601 58.02247261 -0.18110211 65.14526707 -0.22157317 C70.66822986 -0.25186403 76.19110382 -0.26655353 81.71414798 -0.26985329 C85.00438122 -0.27218993 88.29420672 -0.28298209 91.58436775 -0.30631447 C95.26490402 -0.33078925 98.94463533 -0.32972488 102.62522888 -0.32279968 C103.69631897 -0.33560974 104.76740906 -0.3484198 105.87095642 -0.36161804 C117.24762392 -0.28409112 126.527747 2.64979607 134.72459412 10.63545227 C143.42077688 20.56732707 144.65608453 29.31885634 143.92381287 42.14717102 C143.35820343 45.14777701 142.42196135 47.49703715 140.92381287 50.14717102 C140.52162537 50.88322571 140.11943787 51.6192804 139.70506287 52.37763977 C134.31366162 61.31838016 127.22001631 66.42334845 117.25053406 69.33543396 C107.41451754 71.49387584 96.88939972 70.69330415 86.88475037 70.64326477 C84.35135354 70.64341998 81.81795648 70.64491265 79.28456116 70.64767456 C73.99430143 70.6490537 68.70424776 70.63702246 63.41404724 70.61372375 C57.32622552 70.58709527 51.2387851 70.58538095 45.15092504 70.59711212 C39.25464185 70.60794517 33.35847338 70.60155649 27.46219254 70.58755684 C24.97047446 70.5830617 22.47874524 70.58268847 19.98702621 70.58662224 C16.49876647 70.58955263 13.01111638 70.57294055 9.52293396 70.55122375 C8.50757065 70.5557254 7.49220734 70.56022705 6.44607544 70.56486511 C-5.23608103 70.44483188 -15.22979041 67.65736076 -23.82618713 59.48310852 C-31.67196609 50.89198056 -33.46892268 42.13821314 -33.34962463 30.72138977 C-32.54218249 20.16696744 -26.70296742 13.11576859 -19.01368713 6.33467102 C-12.92729759 1.80225327 -7.51695846 0.03714884 0 0 Z " fill="#363636" transform="translate(168.07618713378906,304.8528289794922)"/>
<path d="M0 0 C8.24325586 5.7922286 14.59833072 14.32778152 17.25 24.1015625 C19.41994735 39.39969132 17.31464039 51.53391805 8.078125 63.95703125 C3.9321389 69.08193074 -0.41489545 72.08348626 -6.359375 74.85546875 C-7.00390625 75.16355469 -7.6484375 75.47164063 -8.3125 75.7890625 C-17.33718162 79.88940697 -28.48274855 80.27218588 -38.05078125 77.7265625 C-50.75565903 72.93267461 -59.68596845 64.36036793 -65.484375 52.1796875 C-68.99016852 42.86742346 -69.13311498 28.84412585 -65.26171875 19.65625 C-64.96394531 19.06199219 -64.66617188 18.46773437 -64.359375 17.85546875 C-63.8025 16.70046875 -63.245625 15.54546875 -62.671875 14.35546875 C-56.41427671 4.17801644 -47.42598517 -3.25417699 -35.8984375 -6.67578125 C-23.14314879 -9.03060378 -11.1093961 -6.42757917 0 0 Z " fill="#343334" transform="translate(248.359375,44.14453125)"/>
<path d="M0 0 C0.33 0 0.66 0 1 0 C1 12.87 1 25.74 1 39 C6.61 39 12.22 39 18 39 C18 26.46 18 13.92 18 1 C18.33 1 18.66 1 19 1 C19 7.27 19 13.54 19 20 C22.96 20 26.92 20 31 20 C31 13.73 31 7.46 31 1 C31.33 1 31.66 1 32 1 C32 13.54 32 26.08 32 39 C37.28 39 42.56 39 48 39 C47.98839844 37.84886719 47.97679687 36.69773437 47.96484375 35.51171875 C47.88662809 23.97124274 48.27776828 12.51701659 49 1 C49.33 1 49.66 1 50 1 C50 7.27 50 13.54 50 20 C53.96 20 57.92 20 62 20 C62 13.73 62 7.46 62 1 C62.33 1 62.66 1 63 1 C63 13.54 63 26.08 63 39 C74.40371521 36.19256959 74.40371521 36.19256959 79 31 C80.9391909 27.04979632 82.34025489 23.35431774 83 19 C84.43836751 19.11458693 85.87570966 19.24209116 87.3125 19.375 C88.11300781 19.44460938 88.91351563 19.51421875 89.73828125 19.5859375 C92 20 92 20 95 22 C95 22.66 95 23.32 95 24 C95.66 24 96.32 24 97 24 C97.1260658 32.46441822 94.59345518 37.72055504 89 44 C79.50084477 53.66548285 68.11969716 55.31466776 55.14208984 55.50170898 C50.41464027 55.53652189 45.68840776 55.51973872 40.9609375 55.49609375 C38.42754068 55.49624896 35.89414361 55.49774163 33.36074829 55.50050354 C28.07048857 55.50188268 22.78043489 55.48985144 17.49023438 55.46655273 C11.40241265 55.43992425 5.31497223 55.43820993 -0.77288783 55.4499411 C-6.66917102 55.46077415 -12.56533949 55.45438547 -18.46162033 55.44038582 C-20.9533384 55.43589068 -23.44506763 55.43551745 -25.93678665 55.43945122 C-29.4250464 55.44238161 -32.91269649 55.42576953 -36.40087891 55.40405273 C-37.92392387 55.41080521 -37.92392387 55.41080521 -39.47773743 55.41769409 C-51.1598939 55.29766086 -61.15360328 52.51018974 -69.75 44.3359375 C-74.20360449 39.45924058 -78.22256623 33.80357434 -78.25 27 C-78.1675 26.01 -78.085 25.02 -78 24 C-77.34 24 -76.68 24 -76 24 C-76 23.34 -76 22.68 -76 22 C-72.91111478 19.94074319 -72.29064073 19.7609626 -68.8125 19.875 C-67.554375 19.91625 -66.29625 19.9575 -65 20 C-64.67 18.68 -64.34 17.36 -64 16 C-63.92523438 16.70125 -63.85046875 17.4025 -63.7734375 18.125 C-62.80464546 25.11549944 -61.13311008 30.0257719 -56 35 C-51.75894829 37.73901256 -49.16826355 38.13862274 -44 39 C-44 26.46 -44 13.92 -44 1 C-43.67 1 -43.34 1 -43 1 C-43 7.27 -43 13.54 -43 20 C-39.04 20 -35.08 20 -31 20 C-31 13.73 -31 7.46 -31 1 C-30.67 1 -30.34 1 -30 1 C-29.20458373 13.68404881 -28.87192054 26.29167137 -29 39 C-24.05 39 -19.1 39 -14 39 C-14 32.73 -14 26.46 -14 20 C-9.38 20 -4.76 20 0 20 C0 13.4 0 6.8 0 0 Z " fill="#292929" transform="translate(214,320)"/>
<path d="M0 0 C6.34693716 4.79863588 11.54499262 12.06359611 13 20 C13.92645502 31.07189692 12.19169526 41.21015024 5 50 C-2.60208337 57.70389698 -10.30521708 62.05798626 -21.25 62.25 C-31.07900261 62.11824393 -39.42862752 58.35872467 -46.53515625 51.5234375 C-53.40493167 43.66626317 -56.56849074 35.06015441 -56.3125 24.64453125 C-55.06711576 14.10546713 -49.68861095 5.86438527 -41.6875 -0.8125 C-28.27104844 -10.5739714 -13.43948029 -8.7031749 0 0 Z " fill="#353535" transform="translate(195,211)"/>
<path d="M0 0 C6.54814404 5.33064992 11.92633731 12.81256879 13.45703125 21.2734375 C14.28105792 32.36905246 12.17493965 41.29640947 5.45703125 50.2734375 C-0.58807693 56.8181414 -8.17250448 61.78771295 -17.20703125 62.4765625 C-28.94466711 62.66238259 -36.83405074 60.29117154 -45.54296875 52.2734375 C-51.73826542 46.07814083 -55.64110345 37.0064692 -55.79296875 28.2109375 C-55.65091328 17.44313263 -52.11899883 9.91746795 -44.62109375 2.328125 C-31.75632921 -9.5892344 -14.33072986 -9.72992719 0 0 Z " fill="#353534" transform="translate(294.54296875,210.7265625)"/>
<path d="M0 0 C6.27404846 4.00808144 10.40165794 9.87114288 12.6171875 16.98046875 C13.98376492 24.18986188 13.345417 31.43919988 10 38 C5.52170947 44.51492912 -0.0518173 49.46663378 -8 51 C-17.06939651 51.79956896 -24.48337388 51.47798398 -32 46 C-37.55286223 41.15626953 -41.48190632 34.59808138 -42.3125 27.2265625 C-42.53754908 16.95869827 -39.75253022 10.60952531 -33 3 C-23.78628155 -6.21371845 -10.86080199 -5.78162096 0 0 Z " fill="#DE5B63" transform="translate(238,56)"/>
<path d="M0 0 C0 35.31 0 70.62 0 107 C-11.53823256 105.84617674 -14.60563711 104.00786225 -21.58203125 95.70703125 C-25.52039012 88.18834614 -24.17990471 77.72257508 -24.203125 69.4375 C-24.20595238 68.75090302 -24.20877975 68.06430603 -24.21169281 67.35690308 C-24.22658603 63.72849151 -24.23587965 60.10011874 -24.24023438 56.47167969 C-24.24572775 52.74981509 -24.26980212 49.02831464 -24.29820633 45.30656433 C-24.31692637 42.41873153 -24.32204309 39.53098525 -24.32357025 36.64309692 C-24.32657241 35.27171828 -24.33451724 33.90034025 -24.34775543 32.52902222 C-24.44103806 22.13083089 -23.95065456 13.28758111 -16.609375 5.4375 C-11.70990625 1.06127548 -6.36562236 0 0 0 Z " fill="#646564" transform="translate(96,234)"/>
<path d="M0 0 C9.62493463 1.06943718 14.35126157 2.60280241 20.4375 9.9375 C23.2653206 15.48002838 24.25025344 20.6457671 24.25878906 26.83398438 C24.26509338 28.1522522 24.27139771 29.47052002 24.27789307 30.82873535 C24.27431284 32.25040827 24.27021077 33.67207997 24.265625 35.09375 C24.26697431 36.56913314 24.26891705 38.04451584 24.27142334 39.51989746 C24.27436211 42.60298928 24.27011731 45.68596474 24.26074219 48.76904297 C24.24934834 52.70632949 24.25591452 56.64334327 24.26788712 60.58061981 C24.27513953 63.624512 24.27280231 66.66834031 24.26763153 69.7122345 C24.26630437 71.16339653 24.26790976 72.61456451 24.27259064 74.0657196 C24.27771146 76.09915037 24.26851341 78.13260167 24.25878906 80.16601562 C24.25640228 81.89640076 24.25640228 81.89640076 24.25396729 83.66174316 C23.64640416 91.64781809 20.88312481 97.24222844 15.125 102.75 C9.84466067 106.55184431 6.55782884 107 0 107 C0 71.69 0 36.38 0 0 Z " fill="#4F504F" transform="translate(351,234)"/>
<path d="M0 0 C8.71901321 11.44370484 10.16819893 23.04256239 9 37 C7.32354903 46.59085901 1.02485982 55.45283065 -6 62 C-8.87667186 63.96878606 -11.84410249 65.52836694 -15 67 C-15.64453125 67.30808594 -16.2890625 67.61617188 -16.953125 67.93359375 C-26.79346403 72.4045304 -38.78346793 72.38499556 -49 69 C-52.5625 67.375 -52.5625 67.375 -55 66 C-55.5978785 58.94503375 -55.5978785 58.94503375 -53.0625 54.9375 C-49.51494266 52.69312699 -47.77374714 52.89275342 -43.7265625 53.58984375 C-33.41437043 55.14110474 -24.36965233 54.82071416 -15.75 48.6875 C-9.612064 42.68906255 -6.98851662 36.60875445 -6.6875 28.0625 C-6.80951272 21.90555026 -8.56768168 17.14847749 -12 12 C-12.4375 8.625 -12.4375 8.625 -12 5 C-9.82541056 2.22135794 -8.15034547 0.47367166 -4.875 -0.875 C-3 -1 -3 -1 0 0 Z " fill="#292929" transform="translate(257,52)"/>
<path d="M0 0 C4.74122308 2.2462276 8.12529517 5.64640077 11 10 C12.7426917 15.12556381 13.09150434 21.17579369 11.12890625 26.25390625 C8.43336535 30.91144741 5.10857531 35.02684657 0 37 C-5.37327249 37.89897662 -10.51598302 38.20144523 -15.51171875 35.78515625 C-20.05086472 32.48777295 -24.08692716 28.73624586 -25 23 C-25.48131932 17.77650177 -25.67828999 13.40875612 -23.375 8.625 C-16.28811707 0.7921294 -10.64957668 -1.33119709 0 0 Z " fill="#A9BA7F" transform="translate(280,220)"/>
<path d="M0 0 C4.1092417 2.94508505 7.48293454 6.23168227 9.58203125 10.8671875 C10.44120827 17.38508215 10.05214577 23.15828942 6.58203125 28.8671875 C1.9343051 33.61174128 -1.37724118 36.01929061 -8.10546875 36.1796875 C-13.87205079 36.12443881 -16.86076499 35.38003207 -21.41796875 31.8671875 C-26.5543425 26.31435102 -27.8775317 22.08484538 -27.73828125 14.625 C-27.0705421 8.87592875 -23.86510827 4.5057562 -19.41796875 0.8671875 C-13.42044071 -1.97646804 -6.14952776 -2.88103885 0 0 Z " fill="#A9BA7F" transform="translate(182.41796875,221.1328125)"/>
<path d="M0 0 C9 1 9 1 11 2 C12.16946876 5.50840627 12.14860432 8.30317773 12.17700195 12.0065918 C12.18357315 12.71594376 12.19014435 13.42529572 12.19691467 14.15614319 C12.21662428 16.50383618 12.22830676 18.85146517 12.23828125 21.19921875 C12.24235678 22.00289194 12.2464323 22.80656513 12.25063133 23.63459206 C12.27148495 27.8907508 12.28578812 32.1468774 12.29516602 36.40307617 C12.30621191 40.78667407 12.3405924 45.16976176 12.38033772 49.55317974 C12.40656099 52.93423873 12.41486303 56.31517739 12.41844749 59.69632912 C12.42330096 61.31137336 12.43487945 62.92641268 12.45348549 64.54135704 C12.64419026 82.19525808 12.64419026 82.19525808 6.48164368 88.57084656 C2.62661487 92 2.62661487 92 0 92 C0 61.64 0 31.28 0 0 Z " fill="#656665" transform="translate(351,234)"/>
<path d="M0 0 C0.020625 1.299375 0.04125 2.59875 0.0625 3.9375 C0.81291316 10.8217251 5.06763892 15.62240994 10.3125 19.875 C14.44941191 21.60673057 18.68160306 22.79084886 23 24 C23 28.62 23 33.24 23 38 C12.30423585 38.76398315 5.26272643 36.74448972 -3.3203125 30.2421875 C-9.49900478 24.62733026 -14.2063894 17.22077718 -15.47265625 8.890625 C-15.68568656 1.88841128 -15.68568656 1.88841128 -13.65234375 -0.74609375 C-8.85376546 -4.38756806 -4.99394295 -2.08080956 0 0 Z " fill="#282828" transform="translate(73,318)"/>
<path d="M0 0 C2.06585702 1.37723802 2.76159067 2.30262141 3.55761719 4.63110352 C4.18007077 7.96425313 4.1828237 11.27326054 4.203125 14.65234375 C4.20882507 15.38949112 4.21452515 16.12663849 4.22039795 16.88612366 C4.22982266 18.44189021 4.23637186 19.99767649 4.24023438 21.5534668 C4.24995278 23.92597344 4.28100379 26.29761783 4.3125 28.66992188 C4.31902965 30.18489071 4.32428027 31.69986572 4.328125 33.21484375 C4.3404718 33.9201976 4.3528186 34.62555145 4.36553955 35.35227966 C4.34575119 39.75303201 3.71757855 42.51387368 1 46 C-2 48 -2 48 -5.5 47.875 C-9 47 -9 47 -10.68945312 45.49414062 C-12.61023707 41.83863974 -12.46775867 38.25404576 -12.46875 34.21875 C-12.47636353 33.36825073 -12.48397705 32.51775146 -12.49182129 31.64147949 C-12.50261029 29.84613985 -12.50548026 28.0507375 -12.50097656 26.25537109 C-12.5000032 23.50902854 -12.54165608 20.7654712 -12.5859375 18.01953125 C-12.59114396 16.27344332 -12.5938327 14.52734569 -12.59375 12.78125 C-12.61014526 11.96136597 -12.62654053 11.14148193 -12.64343262 10.29675293 C-12.59373701 6.19740301 -12.54769241 4.59769307 -9.68945312 1.47851562 C-6.19964702 -0.43999071 -3.92480124 -0.50877053 0 0 Z " fill="#FEFEFE" transform="translate(131,182)"/>
<path d="M0 0 C5.53581741 6.10848818 7.59072078 12.30287319 7.27734375 20.48828125 C6.37019492 28.70372766 3.1125911 34.45222738 -3 40 C-8.8469333 44.2234633 -13.83698552 45.14961038 -20.9375 45.1875 C-22.14277344 45.20167969 -23.34804687 45.21585938 -24.58984375 45.23046875 C-27.86019062 45.00944874 -30.06816515 44.40750326 -33 43 C-30.60526698 41.40351132 -28.28837798 40.08131712 -25.75 38.75 C-13.81707094 32.08841339 -6.72098178 21.72452122 -2 9 C-1.16494079 5.99900596 -0.55370164 3.07052725 0 0 Z " fill="#B1484E" transform="translate(244,62)"/>
<path d="M0 0 C4.95 0 9.9 0 15 0 C15 12.87 15 25.74 15 39 C10.05 39 5.1 39 0 39 C0 26.13 0 13.26 0 0 Z " fill="#CACACA" transform="translate(216,320)"/>
<path d="M0 0 C4.95 0 9.9 0 15 0 C15 12.54 15 25.08 15 38 C10.05 38 5.1 38 0 38 C0 25.46 0 12.92 0 0 Z " fill="#CBCBCB" transform="translate(247,321)"/>
<path d="M0 0 C4.95 0 9.9 0 15 0 C15 12.54 15 25.08 15 38 C10.05 38 5.1 38 0 38 C0 25.46 0 12.92 0 0 Z " fill="#CBCBCB" transform="translate(185,321)"/>
<path d="M0 0 C0 12.54 0 25.08 0 38 C-9.03676198 36.87040475 -9.03676198 36.87040475 -11.8125 34.25 C-12.35519531 33.76015625 -12.89789063 33.2703125 -13.45703125 32.765625 C-18.42780113 27.07755415 -18.74405802 22.1534618 -18.62109375 14.75390625 C-17.64928071 8.88024376 -14.64160248 5.54896248 -10 2 C-6.26018833 -0.43396834 -5.04023888 0 0 0 Z " fill="#FAFAFA" transform="translate(169,321)"/>
<path d="M0 0 C9.05329154 1.13166144 9.05329154 1.13166144 12.375 4.25 C13.02210938 4.83265625 13.66921875 5.4153125 14.3359375 6.015625 C18.60088396 11.10152359 18.424258 16.52799388 18.31640625 22.8984375 C17.77893489 28.16698392 15.35890615 30.60226796 11.8125 34.25 C9 36 9 36 0 38 C0 25.46 0 12.92 0 0 Z " fill="#FBFBFB" transform="translate(278,321)"/>
<path d="M0 0 C0.33 0 0.66 0 1 0 C1 8.91 1 17.82 1 27 C-9.37808131 25.96219187 -12.43675126 25.17600604 -18.875 17.8125 C-22.48374034 13.03785893 -22.65082548 9.85742932 -22 4 C-21.32195312 4.03480469 -20.64390625 4.06960938 -19.9453125 4.10546875 C-13.13481178 4.30355811 -7.35512404 3.52374267 -1 1 C-0.67 0.67 -0.34 0.34 0 0 Z " fill="#505150" transform="translate(95,314)"/>
<path d="M0 0 C4.95 0 9.9 0 15 0 C15 6.27 15 12.54 15 19 C10.05 19 5.1 19 0 19 C0 12.73 0 6.46 0 0 Z " fill="#FEFEFE" transform="translate(247,321)"/>
<path d="M0 0 C4.95 0 9.9 0 15 0 C15 6.27 15 12.54 15 19 C10.05 19 5.1 19 0 19 C0 12.73 0 6.46 0 0 Z " fill="#FEFEFE" transform="translate(185,321)"/>
<path d="M0 0 C5.94 0 11.88 0 18 0 C18 6.27 18 12.54 18 19 C8.95798443 17.86974805 6.42338735 16.30684215 1.0625 9.5625 C0 7 0 7 0 0 Z " fill="#C8C8C8" transform="translate(151,340)"/>
<path d="M0 0 C5.94 0 11.88 0 18 0 C18 7.78018996 17.00271822 9.91148983 11.8125 15.25 C9 17 9 17 0 19 C0 12.73 0 6.46 0 0 Z " fill="#C9C9C9" transform="translate(278,340)"/>
<path d="M0 0 C4.62 0 9.24 0 14 0 C14 6.27 14 12.54 14 19 C9.38 19 4.76 19 0 19 C0 12.73 0 6.46 0 0 Z " fill="#FDFDFD" transform="translate(216,321)"/>
<path d="M0 0 C1.9375 1 1.9375 1 3 3 C4.4316995 9.13585499 4.03464188 12.49268697 1 18 C-1.85324437 19.42662219 -3.83454549 19.31033868 -7 19 C-9.875 17.625 -9.875 17.625 -12 15 C-12.80594088 9.99818133 -12.74316038 5.37343719 -10 1 C-6.80768705 -0.59615648 -3.47282715 -0.37005535 0 0 Z " fill="#FEFEFE" transform="translate(131,237)"/>
<path d="M0 0 C5.86928404 -0.18059336 10.44542412 0.10908055 16 2 C15.195625 2.86625 14.39125 3.7325 13.5625 4.625 C11.01391092 7.66176952 10.35443648 10.01258957 10 14 C9.67 14.99 9.34 15.98 9 17 C6.03 16.01 3.06 15.02 0 14 C0 9.38 0 4.76 0 0 Z " fill="#353535" transform="translate(351,219)"/>
<path d="M0 0 C0.33 0 0.66 0 1 0 C1 22.11 1 44.22 1 67 C-1 65 -1 65 -1.24050903 62.5196228 C-1.23606781 61.47593536 -1.23162659 60.43224792 -1.22705078 59.35693359 C-1.22689972 58.17586029 -1.22674866 56.99478699 -1.22659302 55.77792358 C-1.21627045 54.49769318 -1.20594788 53.21746277 -1.1953125 51.8984375 C-1.1924826 50.59170074 -1.18965271 49.28496399 -1.18673706 47.93862915 C-1.17909776 44.46317919 -1.1594469 40.98789617 -1.1373291 37.51251221 C-1.11687696 33.96669778 -1.10773671 30.4208564 -1.09765625 26.875 C-1.07620116 19.91659805 -1.04206173 12.95830704 -1 6 C-1.99 6 -2.98 6 -4 6 C-2.69593116 3.98079663 -1.36176581 1.98075027 0 0 Z " fill="#D1D1D1" transform="translate(305,252)"/>
<path d="M0 0 C0.99 0.33 1.98 0.66 3 1 C0.36 3.64 -2.28 6.28 -5 9 C-5.33 8.01 -5.66 7.02 -6 6 C-4.02 4.02 -2.04 2.04 0 0 Z " fill="#3D3D3D" transform="translate(196,46)"/>
</svg>
